<svg xmlns="http://www.w3.org/2000/svg" width="459" height="459"><rect x="0" y="0" width="100%" height="100%" fill="rgb(61,121,146)"></rect><rect x="0" y="6" width="100%" height="12" opacity="0.08066666666666666" fill="#222"></rect><rect x="0" y="29" width="100%" height="9" opacity="0.05466666666666667" fill="#ddd"></rect><rect x="0" y="48" width="100%" height="20" opacity="0.15" fill="#222"></rect><rect x="0" y="80" width="100%" height="15" opacity="0.10666666666666667" fill="#ddd"></rect><rect x="0" y="112" width="100%" height="6" opacity="0.028666666666666667" fill="#222"></rect><rect x="0" y="130" width="100%" height="15" opacity="0.10666666666666667" fill="#ddd"></rect><rect x="0" y="153" width="100%" height="10" opacity="0.06333333333333334" fill="#222"></rect><rect x="0" y="175" width="100%" height="8" opacity="0.046" fill="#222"></rect><rect x="0" y="198" width="100%" height="6" opacity="0.028666666666666667" fill="#222"></rect><rect x="0" y="221" width="100%" height="5" opacity="0.02" fill="#ddd"></rect><rect x="0" y="238" width="100%" height="16" opacity="0.11533333333333334" fill="#222"></rect><rect x="0" y="274" width="100%" height="6" opacity="0.028666666666666667" fill="#222"></rect><rect x="0" y="299" width="100%" height="19" opacity="0.14133333333333334" fill="#ddd"></rect><rect x="0" y="332" width="100%" height="17" opacity="0.12400000000000001" fill="#ddd"></rect><rect x="0" y="367" width="100%" height="18" opacity="0.13266666666666665" fill="#222"></rect><rect x="0" y="399" width="100%" height="9" opacity="0.05466666666666667" fill="#ddd"></rect><rect x="0" y="413" width="100%" height="17" opacity="0.12400000000000001" fill="#ddd"></rect><rect x="0" y="441" width="100%" height="18" opacity="0.13266666666666665" fill="#222"></rect><rect x="6" y="0" width="12" height="100%" opacity="0.08066666666666666" fill="#222"></rect><rect x="29" y="0" width="9" height="100%" opacity="0.05466666666666667" fill="#ddd"></rect><rect x="48" y="0" width="20" height="100%" opacity="0.15" fill="#222"></rect><rect x="80" y="0" width="15" height="100%" opacity="0.10666666666666667" fill="#ddd"></rect><rect x="112" y="0" width="6" height="100%" opacity="0.028666666666666667" fill="#222"></rect><rect x="130" y="0" width="15" height="100%" opacity="0.10666666666666667" fill="#ddd"></rect><rect x="153" y="0" width="10" height="100%" opacity="0.06333333333333334" fill="#222"></rect><rect x="175" y="0" width="8" height="100%" opacity="0.046" fill="#222"></rect><rect x="198" y="0" width="6" height="100%" opacity="0.028666666666666667" fill="#222"></rect><rect x="221" y="0" width="5" height="100%" opacity="0.02" fill="#ddd"></rect><rect x="238" y="0" width="16" height="100%" opacity="0.11533333333333334" fill="#222"></rect><rect x="274" y="0" width="6" height="100%" opacity="0.028666666666666667" fill="#222"></rect><rect x="299" y="0" width="19" height="100%" opacity="0.14133333333333334" fill="#ddd"></rect><rect x="332" y="0" width="17" height="100%" opacity="0.12400000000000001" fill="#ddd"></rect><rect x="367" y="0" width="18" height="100%" opacity="0.13266666666666665" fill="#222"></rect><rect x="399" y="0" width="9" height="100%" opacity="0.05466666666666667" fill="#ddd"></rect><rect x="413" y="0" width="17" height="100%" opacity="0.12400000000000001" fill="#ddd"></rect><rect x="441" y="0" width="18" height="100%" opacity="0.13266666666666665" fill="#222"></rect></svg>